<?xml version="1.0" standalone="no"?>
<!DOCTYPE svg PUBLIC "-//W3C//DTD SVG 20010904//EN"
 "http://www.w3.org/TR/2001/REC-SVG-20010904/DTD/svg10.dtd">
<svg version="1.0" xmlns="http://www.w3.org/2000/svg"
 width="512.000000pt" height="512.000000pt" viewBox="0 0 512.000000 512.000000"
 preserveAspectRatio="xMidYMid meet">
<metadata>
Created by potrace 1.14, written by Peter Selinger 2001-2017
</metadata>
<g transform="translate(0.000000,512.000000) scale(0.100000,-0.100000)"
fill="#000000" stroke="none">
<path d="M2378 5036 c-1 -2 -34 -6 -73 -10 -67 -6 -99 -10 -157 -22 -15 -3
-39 -7 -55 -9 -91 -11 -314 -77 -458 -135 -109 -43 -300 -139 -382 -192 -37
-24 -73 -47 -78 -50 -6 -4 -37 27 -70 67 -33 41 -62 74 -65 74 -5 1 -66 -162
-142 -378 -42 -120 -45 -126 -126 -215 -46 -50 -97 -110 -114 -132 -27 -38
-33 -41 -66 -38 -21 3 -44 -1 -53 -8 -39 -33 -169 -253 -236 -402 -104 -232
-161 -433 -208 -736 -3 -19 -7 -136 -9 -260 -3 -217 2 -280 38 -495 11 -65 53
-225 81 -310 133 -396 344 -730 642 -1015 240 -230 514 -404 829 -526 142 -55
344 -110 479 -130 17 -3 39 -7 51 -9 126 -27 566 -26 722 1 448 80 797 228
1136 483 104 78 329 294 407 391 174 214 307 444 404 696 38 96 87 257 100
325 2 11 6 28 9 37 3 9 8 33 11 52 3 19 7 46 10 60 3 14 7 43 10 65 3 22 7 56
11 75 15 85 11 446 -6 575 -64 488 -254 924 -563 1290 -275 325 -613 566
-1010 719 -180 69 -359 116 -542 142 -27 3 -59 9 -70 11 -22 5 -451 13 -457 9z
m477 -660 c536 -97 969 -383 1259 -833 112 -175 223 -451 250 -623 3 -19 11
-62 16 -95 15 -81 21 -361 10 -460 -18 -158 -65 -350 -117 -475 -52 -127 -162
-330 -210 -390 -6 -8 -39 -50 -72 -93 -115 -145 -280 -293 -449 -401 -40 -25
-75 -46 -78 -46 -3 0 -18 -8 -32 -19 -39 -27 -223 -105 -322 -136 -82 -25
-187 -50 -260 -61 -19 -3 -46 -8 -60 -10 -46 -10 -354 -12 -430 -3 -563 68
-1045 369 -1355 848 -96 148 -217 441 -240 580 -3 19 -7 37 -9 40 -4 6 -8 36
-26 176 -4 33 -6 137 -5 230 3 191 30 358 85 521 36 107 34 102 99 239 246
513 748 899 1301 1000 195 36 478 41 645 11z"/>
<path d="M2530 4313 c-33 -12 -50 -47 -50 -105 0 -73 13 -106 47 -119 34 -13
67 -5 94 22 18 18 21 31 17 95 -2 48 -9 79 -18 89 -17 17 -67 27 -90 18z"/>
<path d="M1319 3801 c-26 -27 -30 -37 -25 -64 7 -35 56 -91 100 -114 69 -36
139 34 103 103 -23 44 -79 93 -114 100 -27 5 -37 1 -64 -25z"/>
<path d="M3715 3820 c-28 -11 -91 -80 -100 -108 -14 -48 30 -102 85 -102 23 0
116 87 125 118 9 32 -11 77 -41 91 -29 13 -41 13 -69 1z"/>
<path d="M3474 3470 c-16 -10 -327 -317 -692 -682 l-663 -664 -232 233 c-128
128 -244 237 -258 242 -40 14 -75 -8 -176 -111 -92 -94 -103 -113 -90 -158 4
-14 162 -180 367 -384 l360 -359 37 6 c33 6 122 92 830 799 436 436 797 804
802 818 14 41 -8 76 -106 173 -100 99 -135 115 -179 87z"/>
<path d="M848 2633 c-55 -14 -61 -111 -8 -138 29 -15 106 -20 147 -9 59 16 68
110 13 139 -27 14 -113 19 -152 8z"/>
<path d="M4114 2622 c-12 -9 -25 -27 -29 -40 -9 -32 13 -82 42 -93 37 -14 121
-11 153 6 52 27 52 106 0 132 -38 19 -141 16 -166 -5z"/>
<path d="M1384 1491 c-42 -25 -87 -83 -91 -116 -4 -29 43 -85 72 -85 41 0 126
71 140 118 9 32 -11 77 -41 91 -34 15 -44 14 -80 -8z"/>
<path d="M3639 1481 c-26 -27 -30 -37 -25 -64 7 -34 68 -104 103 -118 64 -25
129 37 104 98 -18 43 -81 102 -118 109 -27 5 -37 1 -64 -25z"/>
<path d="M2522 1034 c-23 -10 -42 -62 -42 -113 0 -68 13 -95 50 -111 27 -11
36 -11 65 3 22 10 37 26 41 42 10 41 -1 144 -17 161 -16 16 -76 27 -97 18z"/>
</g>
</svg>
